<?xml version="1.0" encoding="UTF-8" standalone="no"?>
<!DOCTYPE svg PUBLIC "-//W3C//DTD SVG 1.1//EN" "http://www.w3.org/Graphics/SVG/1.1/DTD/svg11.dtd">
<svg width="100%" height="100%" viewBox="0 0 1500 1500" version="1.1" xmlns="http://www.w3.org/2000/svg" xmlns:xlink="http://www.w3.org/1999/xlink" xml:space="preserve" xmlns:serif="http://www.serif.com/" style="fill-rule:evenodd;clip-rule:evenodd;stroke-linejoin:round;stroke-miterlimit:2;">
    <g transform="matrix(1.048723,0,0,1.048723,-38.019967,-37.571017)">
        <g transform="matrix(0.758297,0,0,0.758297,-141.182233,240.290845)">
            <circle cx="453.769" cy="492.424" r="83.705" style="fill:white;"/>
        </g>
        <g transform="matrix(0.758297,0,0,0.758297,-141.182233,377.577137)">
            <circle cx="453.769" cy="492.424" r="83.705" style="fill:white;"/>
        </g>
        <g transform="matrix(0.758297,0,0,0.758297,-141.182233,514.901449)">
            <circle cx="453.769" cy="492.424" r="83.705" style="fill:white;"/>
        </g>
        <g transform="matrix(0.758297,0,0,0.758297,-4.182233,102.966534)">
            <circle cx="453.769" cy="492.424" r="83.705" style="fill:white;"/>
        </g>
        <g transform="matrix(0.758297,0,0,0.758297,-4.182233,240.290845)">
            <circle cx="453.769" cy="492.424" r="83.705" style="fill:white;"/>
        </g>
        <g transform="matrix(0.758297,0,0,0.758297,-4.182233,377.577137)">
            <circle cx="453.769" cy="492.424" r="83.705" style="fill:white;"/>
        </g>
        <g transform="matrix(0.758297,0,0,0.758297,-4.182233,514.901449)">
            <circle cx="453.769" cy="492.424" r="83.705" style="fill:white;"/>
        </g>
        <g transform="matrix(0.758297,0,0,0.758297,-4.182233,652.18774)">
            <circle cx="453.769" cy="492.424" r="83.705" style="fill:white;"/>
        </g>
        <g transform="matrix(0.758297,0,0,0.758297,132.817767,-34.319758)">
            <circle cx="453.769" cy="492.424" r="83.705" style="fill:white;"/>
        </g>
        <g transform="matrix(0.758297,0,0,0.758297,132.817767,102.966534)">
            <circle cx="453.769" cy="492.424" r="83.705" style="fill:white;"/>
        </g>
        <g transform="matrix(0.758297,0,0,0.758297,132.817767,240.290845)">
            <circle cx="453.769" cy="492.424" r="83.705" style="fill:white;"/>
        </g>
        <g transform="matrix(0.758297,0,0,0.758297,132.817767,514.901449)">
            <circle cx="453.769" cy="492.424" r="83.705" style="fill:white;"/>
        </g>
        <g transform="matrix(0.758297,0,0,0.758297,132.817767,652.18774)">
            <circle cx="453.769" cy="492.424" r="83.705" style="fill:white;"/>
        </g>
        <g transform="matrix(0.758297,0,0,0.758297,132.817767,789.512052)">
            <circle cx="453.769" cy="492.424" r="83.705" style="fill:white;"/>
        </g>
        <g transform="matrix(0.758297,0,0,0.758297,269.817767,-171.64407)">
            <circle cx="453.769" cy="492.424" r="83.705" style="fill:white;"/>
        </g>
        <g transform="matrix(0.758297,0,0,0.758297,269.817767,-34.319758)">
            <circle cx="453.769" cy="492.424" r="83.705" style="fill:white;"/>
        </g>
        <g transform="matrix(0.758297,0,0,0.758297,269.817767,102.966534)">
            <circle cx="453.769" cy="492.424" r="83.705" style="fill:white;"/>
        </g>
        <g transform="matrix(0.758297,0,0,0.758297,269.817767,652.18774)">
            <circle cx="453.769" cy="492.424" r="83.705" style="fill:white;"/>
        </g>
        <g transform="matrix(0.758297,0,0,0.758297,269.817767,789.512052)">
            <circle cx="453.769" cy="492.424" r="83.705" style="fill:white;"/>
        </g>
        <g transform="matrix(0.758297,0,0,0.758297,269.817767,926.798344)">
            <circle cx="453.769" cy="492.424" r="83.705" style="fill:white;"/>
        </g>
        <g transform="matrix(0.758297,0,0,0.758297,406.817767,-171.64407)">
            <circle cx="453.769" cy="492.424" r="83.705" style="fill:white;"/>
        </g>
        <g transform="matrix(0.758297,0,0,0.758297,406.817767,-34.319758)">
            <circle cx="453.769" cy="492.424" r="83.705" style="fill:white;"/>
        </g>
        <g transform="matrix(0.758297,0,0,0.758297,406.817767,789.512052)">
            <circle cx="453.769" cy="492.424" r="83.705" style="fill:white;"/>
        </g>
        <g transform="matrix(0.758297,0,0,0.758297,406.817767,926.798344)">
            <circle cx="453.769" cy="492.424" r="83.705" style="fill:white;"/>
        </g>
        <g transform="matrix(0.758297,0,0,0.758297,543.817767,-171.64407)">
            <circle cx="453.769" cy="492.424" r="83.705" style="fill:white;"/>
        </g>
        <g transform="matrix(0.758297,0,0,0.758297,543.817767,-34.319758)">
            <circle cx="453.769" cy="492.424" r="83.705" style="fill:white;"/>
        </g>
        <g transform="matrix(0.758297,0,0,0.758297,543.817767,102.966534)">
            <circle cx="453.769" cy="492.424" r="83.705" style="fill:white;"/>
        </g>
        <g transform="matrix(0.758297,0,0,0.758297,543.817767,652.18774)">
            <circle cx="453.769" cy="492.424" r="83.705" style="fill:white;"/>
        </g>
        <g transform="matrix(0.758297,0,0,0.758297,543.817767,789.512052)">
            <circle cx="453.769" cy="492.424" r="83.705" style="fill:white;"/>
        </g>
        <g transform="matrix(0.758297,0,0,0.758297,543.817767,926.798344)">
            <circle cx="453.769" cy="492.424" r="83.705" style="fill:white;"/>
        </g>
        <g transform="matrix(0.758297,0,0,0.758297,680.817767,-34.319758)">
            <circle cx="453.769" cy="492.424" r="83.705" style="fill:white;"/>
        </g>
        <g transform="matrix(0.758297,0,0,0.758297,680.817767,102.966534)">
            <circle cx="453.769" cy="492.424" r="83.705" style="fill:white;"/>
        </g>
        <g transform="matrix(0.758297,0,0,0.758297,680.817767,240.290845)">
            <circle cx="453.769" cy="492.424" r="83.705" style="fill:white;"/>
        </g>
        <g transform="matrix(0.758297,0,0,0.758297,680.817767,514.901449)">
            <circle cx="453.769" cy="492.424" r="83.705" style="fill:white;"/>
        </g>
        <g transform="matrix(0.758297,0,0,0.758297,680.817767,652.18774)">
            <circle cx="453.769" cy="492.424" r="83.705" style="fill:white;"/>
        </g>
        <g transform="matrix(0.758297,0,0,0.758297,680.817767,789.512052)">
            <circle cx="453.769" cy="492.424" r="83.705" style="fill:white;"/>
        </g>
        <g transform="matrix(0.758297,0,0,0.758297,818.817767,102.966534)">
            <circle cx="453.769" cy="492.424" r="83.705" style="fill:white;"/>
        </g>
        <g transform="matrix(0.758297,0,0,0.758297,818.817767,240.290845)">
            <circle cx="453.769" cy="492.424" r="83.705" style="fill:white;"/>
        </g>
        <g transform="matrix(0.758297,0,0,0.758297,818.817767,377.577137)">
            <circle cx="453.769" cy="492.424" r="83.705" style="fill:white;"/>
        </g>
        <g transform="matrix(0.758297,0,0,0.758297,818.817767,514.901449)">
            <circle cx="453.769" cy="492.424" r="83.705" style="fill:white;"/>
        </g>
        <g transform="matrix(0.758297,0,0,0.758297,818.817767,652.18774)">
            <circle cx="453.769" cy="492.424" r="83.705" style="fill:white;"/>
        </g>
        <g transform="matrix(0.758297,0,0,0.758297,955.817767,240.290845)">
            <circle cx="453.769" cy="492.424" r="83.705" style="fill:white;"/>
        </g>
        <g transform="matrix(0.758297,0,0,0.758297,955.817767,377.577137)">
            <circle cx="453.769" cy="492.424" r="83.705" style="fill:white;"/>
        </g>
        <g transform="matrix(0.758297,0,0,0.758297,955.817767,514.901449)">
            <circle cx="453.769" cy="492.424" r="83.705" style="fill:white;"/>
        </g>
    </g>
</svg>
